<svg id="Layer_1" data-name="Layer 1" xmlns="http://www.w3.org/2000/svg" xmlns:xlink="http://www.w3.org/1999/xlink" viewBox="0 0 1233.01 320.54"><defs><style>.cls-1{fill:none;}.cls-2{clip-path:url(#clip-path);}.cls-3{fill:#ed97a0;}.cls-3,.cls-4,.cls-6{fill-rule:evenodd;}.cls-4,.cls-5{fill:#2e2d3b;}.cls-6{fill:#f3bac1;}</style><clipPath id="clip-path" transform="translate(-13.19 -6.53)"><rect class="cls-1" width="1259.65" height="333.17"/></clipPath></defs><title>Himitsu final logo</title><g class="cls-2"><path class="cls-3" d="M601.8,183.16V139.45H523.12v43.71H505V87h18.16v38.25H601.8V87H620v96.16ZM638.4,87h18.17v96.16H638.4Zm166.22,96.16V115.82l-48.89,67.34H740.84l-49-67.2v67.2H675V87h16.93L749,165.54,805.85,87h15.57v96.16ZM839.86,87H858v96.16H839.86Zm81.27,96.16V101.21h-50.4V87h117.6v14.21h-49v82Zm76.76,0V169h83.59q12,0,12-8.87V147.92q0-8.88-12-8.88h-56.55a49.31,49.31,0,0,1-13.93-1.71,25.35,25.35,0,0,1-9.35-4.78,17.93,17.93,0,0,1-5.26-7.3,25.82,25.82,0,0,1-1.64-9.43v-5.6a25.73,25.73,0,0,1,1.64-9.42,17.9,17.9,0,0,1,5.26-7.31,25.5,25.5,0,0,1,9.35-4.78A49.31,49.31,0,0,1,1024.93,87h81.41v14.21h-81.41q-12,0-12,8.88V116q0,8.88,12,8.88h56.55a49.65,49.65,0,0,1,13.93,1.7,25.78,25.78,0,0,1,9.36,4.78,18,18,0,0,1,5.25,7.31,25.78,25.78,0,0,1,1.64,9.43v11.88a25.73,25.73,0,0,1-1.64,9.42,18,18,0,0,1-5.25,7.31,25.63,25.63,0,0,1-9.36,4.78,49.26,49.26,0,0,1-13.93,1.71Zm158.44,0a49.33,49.33,0,0,1-13.94-1.71,25.5,25.5,0,0,1-9.35-4.78,18,18,0,0,1-5.26-7.31,25.94,25.94,0,0,1-1.64-9.42V87h18.17v73.08q0,8.86,12,8.87H1216q12,0,12-8.87V87h18.17v72.94a39.68,39.68,0,0,1-1,9.42,15.67,15.67,0,0,1-4,7.31,19.33,19.33,0,0,1-8,4.78,43,43,0,0,1-13.32,1.71Z" transform="translate(-13.19 -6.53)"/><polygon class="cls-4" points="708.85 297.54 708.85 215.22 724.51 215.22 724.51 285.38 791.29 285.38 791.29 297.54 708.85 297.54"/><polygon class="cls-4" points="897.47 297.54 855.02 231.24 811.87 297.54 794.56 297.54 849.29 215.22 860.64 215.22 915.01 297.54 897.47 297.54"/><path class="cls-4" d="M935.8,304.07V221.75h67a48,48,0,0,1,11.64,1.22,21.52,21.52,0,0,1,7.83,3.51,13.54,13.54,0,0,1,4.38,5.62,18.84,18.84,0,0,1,1.41,7.42v7.6a15.24,15.24,0,0,1-2.63,9.07,11.26,11.26,0,0,1-7.08,4.61,16.81,16.81,0,0,1,7.72,4.39q3,3.1,3,9.06V286.3a18.62,18.62,0,0,1-1.23,6.72,13.45,13.45,0,0,1-4.21,5.67,22,22,0,0,1-8,3.92,46.22,46.22,0,0,1-12.63,1.46Zm77.77-29.58q0-3.87-2.93-5.44a16,16,0,0,0-7.6-1.58H951.36v24.44H1003a14.59,14.59,0,0,0,7.6-1.75q2.93-1.76,2.93-6.79Zm-1.05-34.15c0-2.26-.71-3.9-2.11-4.91s-3.94-1.52-7.6-1.52H951.36v21.4h51.45c3.66,0,6.2-.51,7.6-1.52a5.66,5.66,0,0,0,2.11-4.91Z" transform="translate(-13.19 -6.53)"/><rect class="cls-5" x="1063.64" y="249.27" width="169.37" height="14.22"/><rect class="cls-5" x="491.77" y="249.27" width="169.37" height="14.22"/><path class="cls-3" d="M103.61,222.8c2.46-1.14,5.09-3.52,7.62-5.22,2.72-1.82,4.67-3.33,7.5-5.31,14.16-9.92,26.4-20,39.6-30.82l45.25-38.66c8.37-7.92,19.76-16.06,26.52-25.42,5.27-7.31,14.2-33.65,35.91-11.51,2.35,2.4,4.3,4,6.91,6.6l37.55,40,15,11.48c3.4-1.43,10.34-13,28.76,5.89a41.74,41.74,0,0,0,4.8,4.44c3.49,2.84,5.81,5.63,9.17,8.59l27.34,25.31c1.9,2,7.39,7.08,10.3,7.38,3.92-7.53,7-30.35,7.55-40.09,2.09-39.21-11.06-80.15-34.28-108-15.87-19.06-29-30.87-52.23-43.09C279.66-.5,220.78.77,174.17,27.33c-6.12,3.49-18.95,12.18-24.31,16.94-11.42,10.16-16.29,15.08-26.31,28.45C101.1,102.67,89.63,144.1,94,184c1,9.38,5.08,33.13,9.63,38.82" transform="translate(-13.19 -6.53)"/><path class="cls-3" d="M118.58,253.33c2.26,4.48,8.45,12.45,11.69,16,9.61,10.58,16.28,18,28.2,26.57,56.27,40.36,131.07,42,186.83,2.13,3.22-2.31,5.18-3.74,8.15-6.09a157.74,157.74,0,0,0,20.75-19.78c4-4.78,20.61-25.74,21.68-33.06-4.88-4.29-35.55-25.17-41-28.65-5.8-3.69-9.88-8.2-13-9.88-2.78,2.73-7.69,11-10.1,14.93l-26.62,47.7c-.67-26-.81-67.13-11.22-88.5-4.16-8.53-14-12.27-24.33-25.48-1.09-1.41-1.86-1.94-3-3.35-2.18-2.6-5.7-8-10.73-8.1-5.89-.07-12.16,6.74-14.66,9.3,6-.15,9.65.3,12.67,3.7,9.54,10.71-6.34,23.92-14.24,29.43-23.86,16.63-54,35-79.92,49.53l-39.17,22a10.08,10.08,0,0,0-1.2.92c-.08.06-.31.46-.36.34s-.25.23-.36.35" transform="translate(-13.19 -6.53)"/><path class="cls-4" d="M247,156.88c-5.48-2.6-23,6.69-28.19,9-30.88,13.46-4.34-8.93,3.83-15.36l10.49-8.71c15.76-14.83,23.45-16.69,33.21-8.7,3.51,2.87,32,31.2,33,32.62,11.52,16.49,10.73,41.11,14,62.66l15.11-24.67c10.7-15.7,11.63-16,18.55-11.05l55.85,39.9,84.28,61.55L414.35,222.9l-14.3.7-45.72-41.06c-8.05-6.93-23.18-26.25-23.91-2.31-27.43-22.46-50.77-52.47-74.23-71-9.88-7.79-11.47,3.26-18.36,13-5.68,8-12.42,12.57-17.94,18.34l-29,25c-10.57,8.25-27.14,23.34-39.26,33.27-42.14,34.49-92.49,65.44-138.4,95.64,72.51-33.92,144.47-70,211-114.76,7.29-4.9,24.45-15,22.8-22.9" transform="translate(-13.19 -6.53)"/><path class="cls-6" d="M868,262.05a7.11,7.11,0,1,1-7.11,7.11,7.11,7.11,0,0,1,7.11-7.11" transform="translate(-13.19 -6.53)"/></g></svg>